<svg width="22" height="22" viewBox="0 0 22 22" fill="none" xmlns="http://www.w3.org/2000/svg">
<path d="M21.6504 20.1775L14.6942 13.2212C15.7736 11.8257 16.3576 10.1194 16.3576 8.32478C16.3576 6.17656 15.5192 4.16228 14.0031 2.64353C12.487 1.12478 10.4674 0.289062 8.32185 0.289062C6.17631 0.289062 4.15667 1.12746 2.6406 2.64353C1.12185 4.1596 0.286133 6.17656 0.286133 8.32478C0.286133 10.4703 1.12453 12.49 2.6406 14.006C4.15667 15.5248 6.17363 16.3605 8.32185 16.3605C10.1165 16.3605 11.8201 15.7766 13.2156 14.6998L20.1718 21.6533C20.1922 21.6738 20.2165 21.6899 20.2431 21.701C20.2698 21.712 20.2983 21.7177 20.3272 21.7177C20.3561 21.7177 20.3846 21.712 20.4113 21.701C20.4379 21.6899 20.4622 21.6738 20.4826 21.6533L21.6504 20.4882C21.6708 20.4678 21.687 20.4436 21.6981 20.4169C21.7091 20.3902 21.7148 20.3617 21.7148 20.3328C21.7148 20.304 21.7091 20.2754 21.6981 20.2487C21.687 20.2221 21.6708 20.1979 21.6504 20.1775ZM12.5647 12.5676C11.429 13.7007 9.92363 14.3248 8.32185 14.3248C6.72006 14.3248 5.2147 13.7007 4.07899 12.5676C2.94595 11.4319 2.32185 9.92656 2.32185 8.32478C2.32185 6.72299 2.94595 5.21496 4.07899 4.08192C5.2147 2.94888 6.72006 2.32478 8.32185 2.32478C9.92363 2.32478 11.4317 2.94621 12.5647 4.08192C13.6977 5.21763 14.3218 6.72299 14.3218 8.32478C14.3218 9.92656 13.6977 11.4346 12.5647 12.5676Z" fill="black" fill-opacity="0.85"/>
</svg>
